Coordinates
version=1
nRows=22
nColumns=13
inDegrees=yes

Units are S.I. units (second, meters, Newtons, ...)
If the header above contains a line with 'inDegrees', this indicates whether rotational values are in degrees (yes) or radians (no).

endheader
time	bJoint_3	seatpos	hipangle	kneeangle	footangle	lbackangle	uarmleft_out	uarmleft_trn	uarmleft_up	uarmright_out	uarmright_trn	uarmright_up
      5.24500000	      0.00000001	     -0.00351844	     93.25455413	      5.41655711	      8.67111124	    -40.25196960	     58.59218768	     -6.92220931	     -0.00000000	     62.09909852	     -7.59735133	      0.00000000
      5.25000000	      0.00000001	     -0.00346114	     93.33606804	      5.26492528	      8.60099331	    -40.26062030	     58.11647226	     -6.51840223	     -0.00000000	     61.78699089	     -6.97342120	      0.00000000
      5.25500000	      0.00000001	     -0.00341544	     93.40280747	      5.14079084	      8.54359830	    -40.26751494	     57.81421483	     -6.10071710	     -0.00000000	     61.31477475	     -6.57020720	      0.00000000
      5.26000000	      0.00000001	     -0.00346586	     93.32926356	      5.27758218	      8.60684574	    -40.26305751	     57.53638753	     -5.48051797	     -0.00000000	     60.90408127	     -6.13635853	      0.00000000
      5.26500000	      0.00000001	     -0.00347049	     93.32260196	      5.28997353	      8.61257549	    -40.26342759	     57.24836053	     -5.06439598	     -0.00000000	     60.61140733	     -5.71948917	      0.00000000
      5.27000000	      0.00000001	     -0.00347833	     93.31136558	      5.31087471	      8.62224029	    -40.26331009	     56.96182860	     -4.64850056	     -0.00000000	     60.32013442	     -5.30253637	      0.00000000
      5.27500000	      0.00000001	     -0.00345207	     93.34917951	      5.24053713	      8.58971664	    -40.26909232	     56.49297503	     -4.24025563	     -0.00000000	     60.01814635	     -4.88444822	      0.00000000
      5.28000000	      0.00000001	     -0.00352578	     93.24427156	      5.43568606	      8.67995762	    -40.26117372	     56.22294923	     -3.82537579	     -0.00000000	     59.62083702	     -4.45587931	      0.00000000
      5.28500000	      0.00000001	     -0.00354420	     93.21864843	      5.48335474	      8.70200317	    -40.25957800	     55.94042393	     -3.40949444	     -0.00000000	     59.33468597	     -4.04003835	      0.00000000
      5.29000000	      0.00000001	     -0.00352130	     93.25053710	      5.42403009	      8.67456719	    -40.26298560	     55.64851713	     -2.99341953	     -0.00000000	     58.86998051	     -3.63123530	      0.00000000
      5.29500000	      0.00000001	     -0.00350465	     93.27395797	      5.38046049	      8.65441846	    -40.26714207	     55.18246104	     -2.58286352	     -0.00000000	     58.57351789	     -3.00711707	      0.00000000
      5.30000000	      0.00000001	     -0.00353302	     93.23416835	      5.45448162	      8.68864997	    -40.26393599	     54.90418059	     -2.16789027	     -0.00000000	     58.29118525	     -2.59110745	      0.00000000
      5.30500000	      0.00000001	     -0.00356535	     93.18948158	      5.53761830	      8.72709989	    -40.26027299	     54.62731963	     -1.75349801	     -0.00000000	     58.01023659	     -2.17540537	      0.00000000
      5.31000000	      0.00000001	     -0.00360178	     93.13991893	      5.62983283	      8.76975176	    -40.25615749	     54.35192410	     -1.33974433	     -0.00000000	     57.73068466	     -1.76006851	      0.00000000
      5.31500000	      0.00000001	     -0.00356011	     93.19665728	      5.52426783	      8.72092511	    -40.26309385	     53.88070736	     -0.92777476	     -0.00000000	     57.25907319	     -1.34716287	      0.00000000
      5.32000000	      0.00000001	     -0.00360305	     93.13820462	      5.63302254	      8.77122715	    -40.25775460	     53.60826492	     -0.51503356	     -0.00000000	     56.98225745	     -0.93211264	      0.00000000
      5.32500000	      0.00000001	     -0.00365096	     93.07428613	      5.75195756	      8.82624369	    -40.25208108	     53.33712058	     -0.10290491	     -0.00000000	     56.70665490	     -0.51748941	      0.00000000
      5.33000000	      0.00000001	     -0.00362048	     93.11479783	      5.67657492	      8.79137275	    -40.25710034	     52.86957563	      0.30878955	     -0.00000000	     56.23803506	     -0.10357923	      0.00000000
      5.33500000	      0.00000001	     -0.00360999	     93.12886618	      5.65039813	      8.77926431	    -40.26043829	     52.68625254	      0.72170681	     -0.00000000	     55.94686763	      0.31037908	      0.00000000
      5.34000000	      0.00000001	     -0.00366795	     93.05192145	      5.79357490	      8.84549635	    -40.25310823	     52.41847792	      1.13286511	     -0.00000000	     55.67526065	      0.72363479	      0.00000000
      5.34500000	      0.00000001	     -0.00375318	     92.94213187	      5.99789736	      8.94002923	    -40.05049287	     51.96306151	      1.54294011	     -0.00000000	     55.21568299	      1.13608077	      0.00000000
      5.35000000	      0.00000001	     -0.00371192	     92.99481171	      5.89985401	      8.89466572	    -39.67016038	     51.38473128	      1.95632397	     -0.00000000	     54.64059810	      1.55109186	      0.00000000
